HIERARCHY
ROOT Hips
{
	OFFSET -14.64140 90.27770 -84.91600
	CHANNELS 6 Xposition Yposition Zposition Zrotation Xrotation Yrotation
	JOINT Spine
	{
		OFFSET 0.00000 13.20850 -1.60436
		CHANNELS 3 Zrotation Xrotation Yrotation
		JOINT Spine1
		{
			OFFSET 0.00000 8.61716 0.00000
			CHANNELS 3 Zrotation Xrotation Yrotation
			JOINT Spine2
			{
				OFFSET 0.00000 8.61717 0.00000
				CHANNELS 3 Zrotation Xrotation Yrotation
				JOINT Spine3
				{
					OFFSET 0.00000 8.61717 0.00000
					CHANNELS 3 Zrotation Xrotation Yrotation
					JOINT Neck
					{
						OFFSET 0.00000 11.07920 1.10792
						CHANNELS 3 Zrotation Xrotation Yrotation
						JOINT Neck1
						{
							OFFSET 0.00000 7.08032 0.00000
							CHANNELS 3 Zrotation Xrotation Yrotation
							JOINT Head
							{
								OFFSET 0.00000 7.08031 0.00000
								CHANNELS 3 Zrotation Xrotation Yrotation
								End site
								{
									OFFSET 0.00000 0.00000 0.00000
								}
							}
						}
					}
					JOINT RightShoulder
					{
						OFFSET -0.01000 7.91373 5.19711
						CHANNELS 3 Zrotation Xrotation Yrotation
						JOINT RightArm
						{
							OFFSET -18.41580 0.00000 0.00000
							CHANNELS 3 Zrotation Xrotation Yrotation
							JOINT RightForeArm
							{
								OFFSET -29.11090 0.00000 0.00000
								CHANNELS 3 Zrotation Xrotation Yrotation
								JOINT RightHand
								{
									OFFSET -24.65040 0.00000 0.00000
									CHANNELS 3 Zrotation Xrotation Yrotation
									JOINT RightHandThumb1
									{
										OFFSET -5.35114 -0.85590 3.97906
										CHANNELS 3 Zrotation Xrotation Yrotation
										JOINT RightHandThumb2
										{
											OFFSET -4.52789 0.00000 0.00000
											CHANNELS 3 Zrotation Xrotation Yrotation
											JOINT RightHandThumb3
											{
												OFFSET -2.46976 0.00000 0.00000
												CHANNELS 3 Zrotation Xrotation Yrotation
												End site
												{
													OFFSET 0.00000 0.00000 0.00000
												}
											}
										}
									}
									JOINT RightHandIndex1
									{
										OFFSET -14.26970 0.00000 2.88139
										CHANNELS 3 Zrotation Xrotation Yrotation
										JOINT RightHandIndex2
										{
											OFFSET -5.48836 0.00000 0.00000
											CHANNELS 3 Zrotation Xrotation Yrotation
											JOINT RightHandIndex3
											{
												OFFSET -3.01859 0.00000 0.00000
												CHANNELS 3 Zrotation Xrotation Yrotation
												End site
												{
													OFFSET 0.00000 0.00000 0.00000
												}
											}
										}
									}
									JOINT RightHandMiddle1
									{
										OFFSET -14.26970 0.00000 -0.09147
										CHANNELS 3 Zrotation Xrotation Yrotation
										JOINT RightHandMiddle2
										{
											OFFSET -6.17441 0.00000 0.00000
											CHANNELS 3 Zrotation Xrotation Yrotation
											JOINT RightHandMiddle3
											{
												OFFSET -3.56743 0.00000 0.00000
												CHANNELS 3 Zrotation Xrotation Yrotation
												End site
												{
													OFFSET 0.00000 0.00000 0.00000
												}
											}
										}
									}
									JOINT RightHandRing1
									{
										OFFSET -12.69180 0.00000 -3.06433
										CHANNELS 3 Zrotation Xrotation Yrotation
										JOINT RightHandRing2
										{
											OFFSET -5.62556 0.00000 0.00000
											CHANNELS 3 Zrotation Xrotation Yrotation
											JOINT RightHandRing3
											{
												OFFSET -3.56744 0.00000 0.00000
												CHANNELS 3 Zrotation Xrotation Yrotation
												End site
												{
													OFFSET 0.00000 0.00000 0.00000
												}
											}
										}
									}
									JOINT RightHandPinky1
									{
										OFFSET -11.11390 0.00000 -6.03719
										CHANNELS 3 Zrotation Xrotation Yrotation
										JOINT RightHandPinky2
										{
											OFFSET -4.52789 0.00000 0.00000
											CHANNELS 3 Zrotation Xrotation Yrotation
											JOINT RightHandPinky3
											{
												OFFSET -2.46976 0.00000 0.00000
												CHANNELS 3 Zrotation Xrotation Yrotation
												End site
												{
													OFFSET 0.00000 0.00000 0.00000
												}
											}
										}
									}
								}
							}
						}
					}
					JOINT LeftShoulder
					{
						OFFSET 0.01000 7.91373 5.19711
						CHANNELS 3 Zrotation Xrotation Yrotation
						JOINT LeftArm
						{
							OFFSET 18.41580 0.00000 0.00000
							CHANNELS 3 Zrotation Xrotation Yrotation
							JOINT LeftForeArm
							{
								OFFSET 29.11090 0.00000 0.00000
								CHANNELS 3 Zrotation Xrotation Yrotation
								JOINT LeftHand
								{
									OFFSET 24.65040 0.00000 0.00000
									CHANNELS 3 Zrotation Xrotation Yrotation
									JOINT LeftHandThumb1
									{
										OFFSET 5.35114 -0.85590 3.97906
										CHANNELS 3 Zrotation Xrotation Yrotation
										JOINT LeftHandThumb2
										{
											OFFSET 4.52789 0.00000 0.00000
											CHANNELS 3 Zrotation Xrotation Yrotation
											JOINT LeftHandThumb3
											{
												OFFSET 2.46977 0.00000 0.00000
												CHANNELS 3 Zrotation Xrotation Yrotation
												End site
												{
													OFFSET 0.00000 0.00000 0.00000
												}
											}
										}
									}
									JOINT LeftHandIndex1
									{
										OFFSET 14.26970 0.00000 2.88139
										CHANNELS 3 Zrotation Xrotation Yrotation
										JOINT LeftHandIndex2
										{
											OFFSET 5.48836 0.00000 0.00000
											CHANNELS 3 Zrotation Xrotation Yrotation
											JOINT LeftHandIndex3
											{
												OFFSET 3.01859 0.00000 0.00000
												CHANNELS 3 Zrotation Xrotation Yrotation
												End site
												{
													OFFSET 0.00000 0.00000 0.00000
												}
											}
										}
									}
									JOINT LeftHandMiddle1
									{
										OFFSET 14.26970 0.00000 -0.09147
										CHANNELS 3 Zrotation Xrotation Yrotation
										JOINT LeftHandMiddle2
										{
											OFFSET 6.17440 0.00000 0.00000
											CHANNELS 3 Zrotation Xrotation Yrotation
											JOINT LeftHandMiddle3
											{
												OFFSET 3.56744 0.00000 0.00000
												CHANNELS 3 Zrotation Xrotation Yrotation
												End site
												{
													OFFSET 0.00000 0.00000 0.00000
												}
											}
										}
									}
									JOINT LeftHandRing1
									{
										OFFSET 12.69180 0.00000 -3.06433
										CHANNELS 3 Zrotation Xrotation Yrotation
										JOINT LeftHandRing2
										{
											OFFSET 5.62556 0.00000 0.00000
											CHANNELS 3 Zrotation Xrotation Yrotation
											JOINT LeftHandRing3
											{
												OFFSET 3.56744 0.00000 0.00000
												CHANNELS 3 Zrotation Xrotation Yrotation
												End site
												{
													OFFSET 0.00000 0.00000 0.00000
												}
											}
										}
									}
									JOINT LeftHandPinky1
									{
										OFFSET 11.11390 0.00000 -6.03719
										CHANNELS 3 Zrotation Xrotation Yrotation
										JOINT LeftHandPinky2
										{
											OFFSET 4.52789 0.00000 0.00000
											CHANNELS 3 Zrotation Xrotation Yrotation
											JOINT LeftHandPinky3
											{
												OFFSET 2.46976 0.00000 0.00000
												CHANNELS 3 Zrotation Xrotation Yrotation
												End site
												{
													OFFSET 0.00000 0.00000 0.00000
												}
											}
										}
									}
								}
							}
						}
					}
					JOINT pCube4
					{
						OFFSET 0.00000 10.91090 1.10792
						CHANNELS 3 Zrotation Xrotation Yrotation
						End site
						{
							OFFSET 0.00000 0.00000 0.00000
						}
					}
				}
			}
		}
	}
	JOINT RightUpLeg
	{
		OFFSET -9.98441 0.00000 0.00000
		CHANNELS 3 Zrotation Xrotation Yrotation
		JOINT RightLeg
		{
			OFFSET 0.00000 -42.11790 0.00000
			CHANNELS 3 Zrotation Xrotation Yrotation
			JOINT RightFoot
			{
				OFFSET 0.00000 -45.00020 -0.00001
				CHANNELS 3 Zrotation Xrotation Yrotation
				JOINT RightForeFoot
				{
					OFFSET 0.00000 -3.74820 0.00000
					CHANNELS 3 Zrotation Xrotation Yrotation
					JOINT RightToeBase
					{
						OFFSET 0.00000 0.06325 14.43120
						CHANNELS 3 Zrotation Xrotation Yrotation
						End site
						{
							OFFSET 0.00000 0.00000 0.00000
						}
					}
				}
			}
		}
	}
	JOINT LeftUpLeg
	{
		OFFSET 9.98441 0.00000 0.00000
		CHANNELS 3 Zrotation Xrotation Yrotation
		JOINT LeftLeg
		{
			OFFSET 0.00000 -42.11800 0.00000
			CHANNELS 3 Zrotation Xrotation Yrotation
			JOINT LeftFoot
			{
				OFFSET 0.00000 -45.00070 0.00000
				CHANNELS 3 Zrotation Xrotation Yrotation
				JOINT LeftForeFoot
				{
					OFFSET 0.00000 -3.74824 0.00000
					CHANNELS 3 Zrotation Xrotation Yrotation
					JOINT LeftToeBase
					{
						OFFSET 0.00000 0.06325 14.43110
						CHANNELS 3 Zrotation Xrotation Yrotation
						End site
						{
							OFFSET 0.00000 0.00000 0.00000
						}
					}
				}
			}
		}
	}
}
MOTION
Frames: 4
Frame Time: 0.050000
-0.006631364648738366 0.013706444574977909 -0.016397957845075525 0.043069135723757535 -0.040078744714751396 0.030767244273908957 3.650889936684464 4.658287050096212 -1.8225553048970535 -0.8460263154700021 3.5051155223472876 0.38369449039098813 -0.5990117238363353 -0.6166143729439099 -0.4207381518279206 -0.4793565014003114 -0.21384777137697375 -0.4686232339287032 -0.8324153157269187 10.973554545429229 0.5258432725411485 0.005450857133488633 -1.214324999361251 1.2880724019782126 -0.036482765819427894 -17.718012975976514 0.05859465980349178 -7.262805691084774 2.966718466031789 -15.942847960260508 76.21737640250862 -0.8045846640091687 6.184846450222369 7.772915807463353 3.21003729297644 86.54081419076918 8.981770234853265 -0.18449152572982014 -2.3598705952222705 4.517512541585587 -0.14195302013078126 -1.6102177203211459 -0.033627916772568274 -0.025700418065656056 -56.223177320812695 0.044927468971930035 -0.03368849392513459 -56.242723472317934 -38.7519434368348 -0.0006553659156013967 -0.01745189670065431 0.03167949351728351 -0.0026959440691129532 0.0007973850073036304 -0.0028395371192453146 -0.0030497981356152415 -0.020837554128273313 -36.6878786333154 0.02092409685538234 0.008024406459756656 -0.0345923864939209 0.007462361538440618 -0.008940639336131326 -0.015143203420098018 0.00040175163892470703 0.00240962786476177 -19.773631124238555 -0.0008896756678209062 -0.0084137538288014 0.03134124427349887 0.04121336922258815 -0.0009735145502852671 -0.009439372323606622 -0.02184341157690323 0.00771517180226987 24.08920567786659 0.0019875668469061174 0.01535328798735399 28.828713294236266 -0.03601719792611351 0.009430325121041699 28.85552572028245 0.04357982651998223 -0.04166678990128944 9.57048662011256 2.4078293012426863 13.38453079747922 -68.59871407311704 18.978311481517444 -21.88104346186631 -6.165539671520457 -2.686528865171426 -88.21358531968752 -7.795756847642726 -3.092138113130326 0.057164304172048576 -0.4823911663237398 0.0914429841013717 -8.0953403800112 -0.006727964216297841 -0.03913928907308019 44.552743860524856 -0.00970899563203236 -0.04620107064748067 44.53193043807345 12.45649562202749 0.007484529188976434 0.03855981455910532 0.03468329365252048 0.01430724492068258 0.01937941352286033 0.002012348688849313 0.002898500641053434 -0.026422773979442017 11.08522186922456 -0.0269690953439473 0.027166671533955987 0.03364987614601908 -0.011762851384604278 -0.010407951713103656 0.025446979751103674 0.02090043275560998 -0.02232568796410526 4.778631708582112 0.004616555764485722 0.03420765126684778 0.009131053447521053 -0.04560067656249202 0.04335478508103424 -0.012479455220747834 0.031102034191331614 -0.016244528575159203 -5.615089235243047 -0.009355610148704122 -0.02191972833454816 -6.701189731898685 0.008459129766916599 -0.037632525961848094 -6.7664877063806035 0.022256019071673704 -0.04943140483166574 -0.006514798259995974 -0.01586347804796774 -0.011009221982039876 8.022521714314417 3.5085250142562083 -19.181150374100223 0.020668526961654145 10.422935423713273 0.050689688386842 -5.661229654421071 -15.706134531300297 3.1656976133821164 -0.030262349171668458 -0.027087212793685752 0.012997619600607264 -0.024534523921439916 4.7198125292212705 -0.0021295108155556636 12.468414975679295 -8.26359494376587 6.908509049785284 0.03096707368363428 46.37840530506874 -0.00043749811685800106 -4.285918880286355 -14.760733817900148 -3.8286500158975008 0.03900120491136681 0.0035441004879449237 -0.010446465385895064 -0.010995180482959277 -10.766030848946643 -0.027307932111146117 
-0.00931554588173842 0.03771293493906805 -0.007029912677110914 -0.04597766352423579 -0.030106747137953267 0.02961941437410099 3.4777582705951064 4.587530697056319 -1.8266000051307973 -0.8251766336209315 3.550315932322296 0.4092753829679045 -0.6055541087814502 -0.6587270141490014 -0.3510634486821052 -0.41365893428568107 -0.19301068621808015 -0.5464086126805734 -0.7196435501960161 11.143664036474403 0.2938464168141151 -0.06017875156453943 -1.1579995665037035 0.8914769535729762 -0.0017175832308445388 -17.442781026895634 0.04262728041989292 -7.250277304963859 2.8744305930656546 -15.989655512877052 75.33638853294646 -0.23892114571315431 7.132970103889453 8.30307612242152 3.495381583916074 86.59717806587312 9.380606034469036 -0.24368182798214477 -2.3764927948694705 4.538336710772911 -0.15737451089622548 -1.5945902908599343 -0.011509987488340234 0.026902305189072075 -56.2235226708877 -0.027220862276539564 -0.011315929081885449 -56.24501157840119 -38.782670350827715 -0.025791508308653576 0.03163948905516515 0.04282802242383539 -0.026229000364230065 0.026436708613010836 -0.008267320373660207 0.0362825202708298 0.043314132553798394 -36.70846954159176 0.029514970690334787 0.00882961938328679 -0.019720174903554665 -0.03712294770097499 -0.003956087009214782 -0.0046854261528368555 -0.027851405010836123 0.0020002702802474877 -19.78679006886101 0.04306774040039929 -0.03026665823578246 0.021301902821558517 0.012710287010583549 0.014525560376793055 -0.013349975391434087 0.013545595455760956 -0.03449526853291899 24.050036753959812 0.026890433579197796 -0.021742508133081796 28.876973824610772 -0.006273638642054807 -0.005163241727054298 28.83451099792806 -0.014744794326826441 0.027832317781858427 9.204625914660921 2.2973328375990083 13.435005782453958 -68.20663345070027 20.49866994893058 -21.815126442834767 -5.628260180897161 -1.9615987664009549 -88.56808012490025 -9.082920420908604 -3.1935124598765334 0.2855366039948018 -0.4525844257511463 0.11359593552805633 -8.166311699491219 -0.04076541063970048 -0.016566955296069177 44.55934544020742 0.020756873393081646 -0.004177477126559597 44.60831018366751 12.509403307448627 0.03994019193442068 0.0012116871766305662 -0.02895979110577424 0.029302601181999993 -0.03413251113100848 -0.043649396067089154 -0.011475508613739705 -0.027198749187152864 11.108192302089913 -0.039762333239098356 -0.04253691431151964 0.019813952704406525 -0.015211727367288081 0.03347509137810466 -0.005779658869148889 0.042874044514492 -0.010541606957318933 4.7915562914959935 -0.01653272784640115 0.014421114190631926 -0.02262045861485839 -0.006828191173613056 0.008201963157446724 0.0008364772127607732 -0.03645284604198191 -0.03836200614258814 -5.561671864160291 0.04487663859178315 0.021495404946186996 -6.7045225604032375 0.005741780053516631 -0.0415769025526683 -6.735971101307208 -0.0024678251461712378 -0.011642071074777346 0.030781463382677638 -0.019360142892787324 -0.02750349245821004 8.042716127907156 3.494673108019356 -19.228655331671458 0.022303798986469017 10.400072720423756 -0.0327644242742446 -5.626150432157719 -15.680791140127466 3.188644016074195 0.014134435617366369 0.0068793440060813055 0.008241810232571466 0.021985959097363342 4.7029581254658215 -0.035774617658729656 12.47758449299005 -8.258286147939478 6.881884550556319 -0.03862215080478888 46.330758762852604 -0.02634303971415905 -4.285219467414099 -14.71890635821117 -3.8169321037925585 0.029801115085110293 0.03829273435429975 0.016744279365196988 0.021998424659656346 -10.761301128682472 0.04421232686808699 
0.029538313107564454 -0.008221425646148481 0.01744925255641256 -0.032324978859304104 0.01405790134845341 0.004689665664483669 3.433418069500613 4.441500391179107 -1.8801305055889403 -0.7936838778048365 3.5498982475757326 0.3814006273106117 -0.5897720405400408 -0.6096125608426712 -0.35802146080998004 -0.3669566842276444 -0.2158427142230396 -0.5175764400023082 -0.6064781643655078 11.310644197554245 0.11132293165452294 0.012876480394943008 -0.9861258666889032 0.5180027602892393 0.058060914755920234 -17.17555997484159 0.04159170595941169 -7.236191320083029 2.958973457005038 -16.020640219102837 74.45749605504176 -0.39895218974304036 8.086080649047956 8.66358560848947 3.698553850632272 87.20026233958322 9.798234623450732 -0.27917376777370645 -2.518917261660582 4.541768890795926 -0.11230213263809163 -1.6422452059870267 -0.022611190290316788 -0.03060849780735893 -56.20550813651258 0.04548461904923662 0.010826896109945382 -56.234719070206786 -38.78542859827348 -0.012952343002312197 -0.017010136835139918 0.0055625185748782195 -0.03165462714161559 0.003979351698831512 0.003385916426951496 0.03486579320247316 -0.012840416665305408 -36.73056615149755 -0.011442320782492797 0.003940952108939999 -0.013589163557893382 -0.033196776276391955 0.008236760146038217 -0.025614326880907153 -0.0043094292036134525 0.009648617012619227 -19.731230459315974 0.042188441961702336 0.02437558117171747 -0.010162957006885654 -0.005773463380411635 0.020667843675281072 -0.011904240131848879 0.025875045889774788 -0.032917748787564385 24.1016799485336 0.022317547671396723 -0.013472928563449307 28.90633731075523 0.028090929700026104 -0.002861898786797195 28.870115437236063 -0.004544051626106151 -0.0227623534316346 9.040420606343808 2.3142571816241033 13.361125641529501 -67.87200393363338 21.441353970380483 -21.604619939230943 -5.097165566226683 -1.626528854239858 -89.07687969500121 -10.202862514321463 -3.369639476626429 0.5121660133548447 -0.49983639661839 0.08695952524297604 -8.111362717141802 -0.015592792866182262 -0.014331647871120842 44.57351282119609 -0.006798867869086212 -0.016049072528957077 44.571662941284416 12.471039500001378 -0.041979065653644496 -0.04629149770368834 0.028960461751894928 0.03085312569287781 0.013336843760352973 0.010347673257313549 -0.016346389183863247 -0.03510547151962285 11.109704465140185 0.016265095395685766 0.016601466844314787 -0.02445403724147114 0.04538315779352178 -0.034833667269362406 0.03242739273330141 0.04356145096056015 0.007255634758893399 4.759268199944335 0.0051016250608355755 -0.0017270423126239986 -0.0077424163948933995 0.030183460352296704 -0.023926680101389253 -0.014666223071969306 -0.03937895829486674 0.03244447573391818 -5.577958856175283 0.002221204724057495 0.03260386733094235 -6.675632524217564 -0.004705457006727365 -0.023669252625930174 -6.7302110407117 0.03894769147542639 -0.04056540142187475 -0.02965163719964701 -0.04506036252617636 0.009221715782514742 8.038704589886258 3.474959163133462 -19.199092559618375 0.0045681812636011385 10.408227428858279 -0.007591265969916702 -5.6393555183322155 -15.65668079376194 3.171910152531474 0.030300977589211926 0.004717558646962908 0.008248161625992494 -0.02578937546749676 4.656590530228317 -0.034394948027710356 12.439366721447676 -8.283652368980258 6.865465564881456 -0.008776345460068072 46.35598567277424 0.0171302089009338 -4.333954663589006 -14.760619343551612 -3.8098706921697025 -0.004659563424161485 -0.012643561910255698 0.021051660195055902 -0.041284941991237896 -10.771963234199438 -0.011863995283706949 
0.03864955436545859 0.009950935103931203 -0.013324412122228346 -0.02470073178782406 -0.02683355166997588 0.045329459304128544 3.273032287087628 4.321346017491588 -1.855795624128771 -0.7975431054294913 3.541631099298497 0.37209860972680975 -0.5929631597330342 -0.6696322554848438 -0.36071149935564917 -0.34473128657557334 -0.15278147523099164 -0.5229442417379061 -0.530828220002055 11.422835988459928 0.026436336735297015 0.007135530402917187 -0.7595284420808036 0.056257626856776606 0.09882826453298149 -16.745035392890692 0.029000931544720877 -7.274584739376847 2.9190797127293107 -16.065544707229893 73.28157493794185 -1.196877954333448 8.733380484815587 9.669145421216781 3.599590038553553 87.8375731367509 10.375860109743245 -0.2200417535415168 -2.763919487247599 4.552378588118429 -0.16199496022273357 -1.5873342310731187 0.0048476689928434995 -0.001918080670404062 -56.262577544692654 0.02663004068911543 0.01310592996386972 -56.24951907155952 -38.73492096340056 0.043234160362404975 0.046226506119438876 0.029478818515068072 -0.008733731695869081 0.03132966067932333 -0.03175307717879492 -0.047712590052118815 0.00777971745444155 -36.671088622674375 0.025770471079369764 0.043111352905727006 0.02651978969316765 -0.04844187135843574 0.019543303325166787 -0.04021423063786459 0.04497009363023972 0.0331854645294871 -19.78650454742365 -0.029610038833713992 -0.020208737458953206 -0.009895394558182323 -0.015936072223728 -0.040756955318815076 0.0011956055348392146 0.005996208850001826 -0.015219682052579541 24.03272935084516 -0.024042215339397235 0.019471742938498578 28.89678846027112 -0.010475168094585418 0.04177282461421318 28.831851691665094 -0.029087099177635065 -0.005497383290300392 8.748497155990469 2.2395568453839267 13.344723012731318 -67.45679895699836 21.94481378655552 -20.913931138908072 -6.075034565722625 -1.3902293431228305 -89.4968095936557 -11.178944461424894 -3.690308911703995 0.8275927741734879 -0.4275042184047305 0.05978726518665271 -8.169876025797048 0.020508533926501253 -0.02781180160613356 44.583340545979084 0.0424542911005312 0.044605952832469424 44.55745667379516 12.421806208614047 0.002589304724039004 -0.011299989009193516 0.04801127520647413 -0.03390765535796297 -0.0036530844180108694 0.04351079400360312 0.0335628907448221 0.04005690517127586 11.074950711695458 -0.016013271648373576 0.041026028565277844 0.007495614446283636 -0.03358610968488668 -0.007235597555433623 0.028371712417230934 0.02226233363112078 0.00926418492791557 4.76008501134943 0.01576563396417086 0.004695235896424865 0.020878882870322888 -0.008206201865198723 0.005927142561667394 -0.0058802920317436586 0.0016023085324883151 -0.024599018435342988 -5.602788604791046 -0.0032152975951098097 0.04080542837649819 -6.766871676012815 -0.0391003574840397 -0.046960810463398395 -6.74399442237806 -0.009847701029906548 0.020732489636821234 -0.03036171148335648 0.028728638051153017 0.016999515479797826 8.077406761453576 3.4682838988663196 -19.242419719557383 0.010238420215996443 10.39428851201567 -0.015611982332111453 -5.622087229085091 -15.643190861704458 3.20004305002226 0.03429326672967366 0.033643419154431524 0.029426370940605417 0.03541820542099364 4.678406860154893 0.011020501205115631 12.426119621585396 -8.241032172234274 6.88243221615363 0.0016514609973286524 46.35090254495656 -0.007070812618578223 -4.340214076708354 -14.76177355196234 -3.849394719214589 0.0010278419982270859 0.012741112806326747 0.01597854350829372 -0.007381137912173234 -10.775410117358136 0.025158838621167606 
